<svg width="520" height="220" viewBox="0 0 520 220" fill="none" xmlns="http://www.w3.org/2000/svg">
  <g>
    <rect width="520" height="220" fill="var(--vscode-editor-background, #1E1E1E)" />
    <g clip-path="url(#clip0_1003_92672)">
      <g>
        <rect width="520" height="39" fill="var(--vscode-editorGroupHeader-tabsBackground, #252526)" />
        <g clip-path="url(#clip1_1003_92672)">
          <g>
            <rect width="115.654" height="39.2998" fill="var(--vscode-tab-activeBackground, #1E1E1E)" />
            <rect x="13.4741" y="15.72" width="88.7052" height="7.85995" rx="3.92998" fill="var(--vscode-editorHoverWidget-border, #2D2D2D)" />
          </g>
        </g>
      </g>
    </g>
    <g filter="url(#filter0_d_1003_92672)">
      <rect width="425" height="182" transform="translate(48 20)" fill="var(--vscode-quickInput-background, #252526)" />
      <g>
        <g>
          <rect x="55.5" y="27.5" width="410" height="25" fill="var(--vscode-input-background, #3C3C3C)" />
          <rect x="55.5" y="27.5" width="410" height="25" stroke="var(--vscode-focusBorder, #007FD4)" />
        </g>
      </g>
      <g>
        <g>
          <g>
            <rect x="60" y="66" width="38" height="6" rx="3" fill="var(--vscode-editorHoverWidget-border, #FFFFFF)" />
            <rect x="102" y="66" width="29" height="6" rx="3" fill="var(--vscode-textLink-foreground, #3794FF)" />
            <rect x="135" y="66" width="105" height="6" rx="3" fill="var(--vscode-editorHoverWidget-border, #FFFFFF)" />
          </g>
        </g>
        <g>
          <rect width="425" height="24" transform="translate(48 82)" fill="var(--vscode-quickInputList-focusBackground, #062F4A)" />
          <path d="M64.9067 99.2222C66.9507 99.2222 68.4551 98.0479 68.709 96.2642H67.2935C67.0396 97.3052 66.1191 97.959 64.9067 97.959C63.2563 97.959 62.228 96.6006 62.228 94.4233C62.228 92.2461 63.2563 90.8813 64.9004 90.8813C66.1064 90.8813 67.0269 91.605 67.2935 92.7412H68.709C68.4805 90.9067 66.9189 89.6182 64.9004 89.6182C62.355 89.6182 60.7744 91.459 60.7744 94.4233C60.7744 97.3813 62.3613 99.2222 64.9067 99.2222ZM73.3428 99.1333C75.3613 99.1333 76.5991 97.7812 76.5991 95.5532C76.5991 93.3252 75.355 91.9731 73.3428 91.9731C71.3242 91.9731 70.0801 93.3315 70.0801 95.5532C70.0801 97.7812 71.3179 99.1333 73.3428 99.1333ZM73.3428 97.9717C72.1558 97.9717 71.4893 97.0894 71.4893 95.5532C71.4893 94.0171 72.1558 93.1284 73.3428 93.1284C74.5234 93.1284 75.1963 94.0171 75.1963 95.5532C75.1963 97.083 74.5234 97.9717 73.3428 97.9717ZM78.2432 99H79.6079V94.9565C79.6079 93.8457 80.249 93.1602 81.2583 93.1602C82.2676 93.1602 82.75 93.7188 82.75 94.8613V99H84.1147V94.5376C84.1147 92.8936 83.2642 91.9731 81.7217 91.9731C80.6807 91.9731 79.9951 92.4365 79.6587 93.1982H79.5571V92.1064H78.2432V99ZM86.5205 90.3672V92.1255H85.4224V93.2173H86.5205V97.1846C86.5205 98.5112 87.1235 99.0444 88.6406 99.0444C88.9072 99.0444 89.1611 99.0127 89.3833 98.9746V97.8892C89.1929 97.9082 89.0723 97.9209 88.8628 97.9209C88.1836 97.9209 87.8853 97.5972 87.8853 96.8545V93.2173H89.3833V92.1255H87.8853V90.3672H86.5205ZM91.6938 90.875C92.1699 90.875 92.5571 90.4878 92.5571 90.0181C92.5571 89.542 92.1699 89.1548 91.6938 89.1548C91.2178 89.1548 90.8306 89.542 90.8306 90.0181C90.8306 90.4878 91.2178 90.875 91.6938 90.875ZM91.0146 99H92.373V92.1064H91.0146V99ZM94.3789 99H95.7437V94.9565C95.7437 93.8457 96.3848 93.1602 97.394 93.1602C98.4033 93.1602 98.8857 93.7188 98.8857 94.8613V99H100.25V94.5376C100.25 92.8936 99.3999 91.9731 97.8574 91.9731C96.8164 91.9731 96.1309 92.4365 95.7944 93.1982H95.6929V92.1064H94.3789V99ZM108.001 92.1064H106.636V96.1499C106.636 97.2607 106.033 97.9336 104.929 97.9336C103.926 97.9336 103.475 97.3877 103.475 96.2451V92.1064H102.11V96.5815C102.11 98.2002 102.961 99.1333 104.491 99.1333C105.538 99.1333 106.243 98.689 106.579 97.9082H106.687V99H108.001V92.1064ZM114.514 97.1528C114.26 97.7114 113.695 98.0161 112.87 98.0161C111.778 98.0161 111.073 97.229 111.029 95.9785V95.915H115.91V95.4453C115.91 93.2871 114.749 91.9731 112.825 91.9731C110.876 91.9731 109.639 93.376 109.639 95.5659C109.639 97.7686 110.851 99.1333 112.832 99.1333C114.412 99.1333 115.529 98.3716 115.828 97.1528H114.514ZM112.819 93.084C113.828 93.084 114.488 93.814 114.52 94.9312H111.029C111.105 93.8203 111.81 93.084 112.819 93.084ZM126.454 92.1509H126.542L128.51 99H129.85L132.325 89.8403H130.846L129.17 96.9624H129.082L127.158 89.8403H125.838L123.927 96.9624H123.838L122.156 89.8403H120.677L123.146 99H124.492L126.454 92.1509ZM136.121 99.1333C138.14 99.1333 139.377 97.7812 139.377 95.5532C139.377 93.3252 138.133 91.9731 136.121 91.9731C134.103 91.9731 132.858 93.3315 132.858 95.5532C132.858 97.7812 134.096 99.1333 136.121 99.1333ZM136.121 97.9717C134.934 97.9717 134.268 97.0894 134.268 95.5532C134.268 94.0171 134.934 93.1284 136.121 93.1284C137.302 93.1284 137.975 94.0171 137.975 95.5532C137.975 97.083 137.302 97.9717 136.121 97.9717ZM141.021 99H142.386V94.8804C142.386 93.9092 143.116 93.2427 144.151 93.2427C144.392 93.2427 144.798 93.2871 144.913 93.3188V92.0366C144.767 92.0049 144.506 91.9858 144.303 91.9858C143.402 91.9858 142.634 92.4746 142.437 93.1538H142.335V92.1064H141.021V99ZM147.763 95.0137H147.655V89.4023H146.29V99H147.655V96.4927L148.258 95.915L150.632 99H152.308L149.273 95.0581L152.117 92.1064H150.505L147.763 95.0137ZM154.269 90.875C154.745 90.875 155.132 90.4878 155.132 90.0181C155.132 89.542 154.745 89.1548 154.269 89.1548C153.793 89.1548 153.406 89.542 153.406 90.0181C153.406 90.4878 153.793 90.875 154.269 90.875ZM153.59 99H154.948V92.1064H153.59V99ZM156.954 99H158.319V94.9565C158.319 93.8457 158.96 93.1602 159.969 93.1602C160.979 93.1602 161.461 93.7188 161.461 94.8613V99H162.826V94.5376C162.826 92.8936 161.975 91.9731 160.433 91.9731C159.392 91.9731 158.706 92.4365 158.37 93.1982H158.268V92.1064H156.954V99ZM167.663 101.634C169.618 101.634 170.855 100.638 170.855 99.0698V92.1064H169.548V93.2046H169.44C169.053 92.4556 168.221 91.9858 167.269 91.9858C165.504 91.9858 164.4 93.376 164.4 95.4644C164.4 97.5337 165.492 98.8984 167.256 98.8984C168.208 98.8984 168.97 98.4858 169.389 97.7368H169.491V99.0635C169.491 99.9966 168.818 100.555 167.682 100.555C166.761 100.555 166.184 100.225 166.069 99.7046H164.673C164.819 100.866 165.936 101.634 167.663 101.634ZM167.644 97.7686C166.469 97.7686 165.809 96.8735 165.809 95.4644C165.809 94.0552 166.469 93.1538 167.644 93.1538C168.805 93.1538 169.516 94.0552 169.516 95.4644C169.516 96.8735 168.812 97.7686 167.644 97.7686ZM180.453 89.6182C177.825 89.6182 176.175 91.4653 176.175 94.417C176.175 97.3623 177.787 99.2222 180.453 99.2222C183.1 99.2222 184.725 97.356 184.725 94.417C184.725 91.4717 183.087 89.6182 180.453 89.6182ZM180.453 90.875C182.186 90.875 183.271 92.2461 183.271 94.417C183.271 96.5688 182.192 97.9653 180.453 97.9653C178.688 97.9653 177.628 96.5688 177.628 94.417C177.628 92.2461 178.72 90.875 180.453 90.875ZM186.496 99H187.861V94.9565C187.861 93.8457 188.502 93.1602 189.511 93.1602C190.521 93.1602 191.003 93.7188 191.003 94.8613V99H192.368V94.5376C192.368 92.8936 191.517 91.9731 189.975 91.9731C188.934 91.9731 188.248 92.4365 187.912 93.1982H187.81V92.1064H186.496V99ZM195.351 99.0952C195.891 99.0952 196.284 98.6953 196.284 98.1812C196.284 97.667 195.891 97.2671 195.351 97.2671C194.818 97.2671 194.418 97.667 194.418 98.1812C194.418 98.6953 194.818 99.0952 195.351 99.0952ZM199.452 99.0952C199.991 99.0952 200.385 98.6953 200.385 98.1812C200.385 97.667 199.991 97.2671 199.452 97.2671C198.918 97.2671 198.519 97.667 198.519 98.1812C198.519 98.6953 198.918 99.0952 199.452 99.0952ZM203.552 99.0952C204.092 99.0952 204.485 98.6953 204.485 98.1812C204.485 97.667 204.092 97.2671 203.552 97.2671C203.019 97.2671 202.619 97.667 202.619 98.1812C202.619 98.6953 203.019 99.0952 203.552 99.0952Z" fill="white"/>
        </g>
        <g>
          <g>
            <rect x="60" y="116" width="62.5" height="6" rx="3" fill="var(--vscode-editorHoverWidget-border, #FFFFFF)" />
            <rect x="126.5" y="116" width="29" height="6" rx="3" fill="var(--vscode-textLink-foreground, #3794FF)" />
            <rect x="159.5" y="116" width="62.5" height="6" rx="3" fill="var(--vscode-editorHoverWidget-border, #FFFFFF)" />
          </g>
        </g>
        <g>
          <g>
            <rect x="60" y="138" width="41" height="6" rx="3" fill="var(--vscode-editorHoverWidget-border, #FFFFFF)" />
            <rect x="105" y="138" width="69" height="6" rx="3" fill="var(--vscode-editorHoverWidget-border, #FFFFFF)" />
            <rect x="178" y="138" width="26" height="6" rx="3" fill="var(--vscode-textLink-foreground, #3794FF)" />
          </g>
        </g>
        <g>
          <g>
            <rect x="60" y="160" width="26" height="6" rx="3" fill="var(--vscode-textLink-foreground, #3794FF)" />
            <rect x="90" y="160" width="164" height="6" rx="3" fill="var(--vscode-editorHoverWidget-border, #FFFFFF)" />
          </g>
        </g>
        <g>
          <g>
            <rect x="60" y="182" width="46" height="6" rx="3" fill="var(--vscode-editorHoverWidget-border, #FFFFFF)" />
            <rect x="110" y="182" width="29" height="6" rx="3" fill="var(--vscode-textLink-foreground, #3794FF)" />
            <rect x="143" y="182" width="46" height="6" rx="3" fill="var(--vscode-editorHoverWidget-border, #FFFFFF)" />
          </g>
        </g>
      </g>
    </g>
  </g>
  <defs>
    <filter id="filter0_d_1003_92672" x="32" y="6" width="457" height="214" filterUnits="userSpaceOnUse" color-interpolation-filters="sRGB">
      <feFlood flood-opacity="0" result="BackgroundImageFix" />
      <feColorMatrix in="SourceAlpha" type="matrix" values="0 0 0 0 0 0 0 0 0 0 0 0 0 0 0 0 0 0 127 0" result="hardAlpha" />
      <feOffset dy="2" />
      <feGaussianBlur stdDeviation="8" />
      <feColorMatrix type="matrix" values="0 0 0 0 0 0 0 0 0 0 0 0 0 0 0 0 0 0 0.36 0" />
      <feBlend mode="normal" in2="BackgroundImageFix" result="effect1_dropShadow_1003_92672" />
      <feBlend mode="normal" in="SourceGraphic" in2="effect1_dropShadow_1003_92672" result="shape" />
    </filter>
    <clipPath id="clip0_1003_92672">
      <rect width="520" height="220" fill="#FFFFFF" />
    </clipPath>
    <clipPath id="clip1_1003_92672">
      <rect width="115.654" height="39.2998" fill="#FFFFFF" />
    </clipPath>
  </defs>
</svg>