<svg width="520" height="220" viewBox="0 0 520 220" fill="none" xmlns="http://www.w3.org/2000/svg">
  <g>
    <rect width="520" height="220" fill="var(--vscode-editor-background, #1E1E1E)" />
    <g clip-path="url(#clip0_1003_92672)">
      <g>
        <rect width="520" height="39" fill="var(--vscode-editorGroupHeader-tabsBackground, #252526)" />
        <g clip-path="url(#clip1_1003_92672)">
          <g>
            <rect width="115.654" height="39.2998" fill="var(--vscode-tab-activeBackground, #1E1E1E)" />
            <rect x="13.4741" y="15.72" width="88.7052" height="7.85995" rx="3.92998" fill="var(--vscode-editorHoverWidget-border, #2D2D2D)" />
          </g>
        </g>
      </g>
    </g>
    <g filter="url(#filter0_d_1003_92672)">
      <rect width="425" height="182" transform="translate(48 20)" fill="var(--vscode-quickInput-background, #252526)" />
      <g>
        <g>
          <rect x="55.5" y="27.5" width="410" height="25" fill="var(--vscode-input-background, #3C3C3C)" />
          <rect x="55.5" y="27.5" width="410" height="25" stroke="var(--vscode-focusBorder, #007FD4)" />
        </g>
      </g>
      <g>
        <g>
          <g>
            <rect x="60" y="66" width="38" height="6" rx="3" fill="var(--vscode-editorHoverWidget-border, #FFFFFF)" />
            <rect x="102" y="66" width="29" height="6" rx="3" fill="var(--vscode-textLink-foreground, #3794FF)" />
            <rect x="135" y="66" width="105" height="6" rx="3" fill="var(--vscode-editorHoverWidget-border, #FFFFFF)" />
          </g>
        </g>
        <g>
          <rect width="425" height="24" transform="translate(48 82)" fill="var(--vscode-quickInputList-focusBackground, #062F4A)" />
          <path d="M65.0527 89.6182C62.4248 89.6182 60.7744 91.4653 60.7744 94.417C60.7744 97.3623 62.3867 99.2222 65.0527 99.2222C67.6997 99.2222 69.3247 97.356 69.3247 94.417C69.3247 91.4717 67.687 89.6182 65.0527 89.6182ZM65.0527 90.875C66.7856 90.875 67.8711 92.2461 67.8711 94.417C67.8711 96.5688 66.792 97.9653 65.0527 97.9653C63.2881 97.9653 62.228 96.5688 62.228 94.417C62.228 92.2461 63.3198 90.875 65.0527 90.875ZM74.6821 91.9858C73.7427 91.9858 72.9302 92.4619 72.5112 93.249H72.4097V92.1064H71.0957V101.298H72.4604V97.959H72.5684C72.9302 98.689 73.7109 99.1143 74.6948 99.1143C76.4404 99.1143 77.5513 97.7305 77.5513 95.5532C77.5513 93.3633 76.4404 91.9858 74.6821 91.9858ZM74.2949 97.9463C73.1523 97.9463 72.4351 97.0259 72.4351 95.5532C72.4351 94.0742 73.1523 93.1538 74.3013 93.1538C75.4565 93.1538 76.1484 94.0552 76.1484 95.5532C76.1484 97.0513 75.4565 97.9463 74.2949 97.9463ZM83.7275 97.1528C83.4736 97.7114 82.9087 98.0161 82.0835 98.0161C80.9917 98.0161 80.2871 97.229 80.2427 95.9785V95.915H85.124V95.4453C85.124 93.2871 83.9624 91.9731 82.0391 91.9731C80.0903 91.9731 78.8525 93.376 78.8525 95.5659C78.8525 97.7686 80.0649 99.1333 82.0454 99.1333C83.626 99.1333 84.7432 98.3716 85.0415 97.1528H83.7275ZM82.0327 93.084C83.042 93.084 83.7021 93.814 83.7339 94.9312H80.2427C80.3188 93.8203 81.0234 93.084 82.0327 93.084ZM86.7617 99H88.1265V94.9565C88.1265 93.8457 88.7676 93.1602 89.7769 93.1602C90.7861 93.1602 91.2686 93.7188 91.2686 94.8613V99H92.6333V94.5376C92.6333 92.8936 91.7827 91.9731 90.2402 91.9731C89.1992 91.9731 88.5137 92.4365 88.1772 93.1982H88.0757V92.1064H86.7617V99ZM99.6919 95.4771H101.698L103.564 99H105.208L103.151 95.2549C104.269 94.8804 104.929 93.8774 104.929 92.6396C104.929 90.9321 103.742 89.8403 101.895 89.8403H98.27V99H99.6919V95.4771ZM99.6919 91.0337H101.698C102.796 91.0337 103.469 91.6494 103.469 92.6714C103.469 93.7188 102.834 94.3091 101.736 94.3091H99.6919V91.0337ZM111.124 97.1528C110.87 97.7114 110.305 98.0161 109.48 98.0161C108.388 98.0161 107.684 97.229 107.639 95.9785V95.915H112.521V95.4453C112.521 93.2871 111.359 91.9731 109.436 91.9731C107.487 91.9731 106.249 93.376 106.249 95.5659C106.249 97.7686 107.461 99.1333 109.442 99.1333C111.022 99.1333 112.14 98.3716 112.438 97.1528H111.124ZM109.429 93.084C110.438 93.084 111.099 93.814 111.13 94.9312H107.639C107.715 93.8203 108.42 93.084 109.429 93.084ZM114.158 99H115.523V94.7661C115.523 93.8647 116.151 93.1602 116.983 93.1602C117.795 93.1602 118.316 93.6489 118.316 94.436V99H119.655V94.6392C119.655 93.8076 120.233 93.1602 121.115 93.1602C122.01 93.1602 122.455 93.6235 122.455 94.5757V99H123.819V94.2456C123.819 92.811 123.007 91.9731 121.61 91.9731C120.652 91.9731 119.858 92.4619 119.509 93.2046H119.401C119.097 92.4619 118.443 91.9731 117.497 91.9731C116.577 91.9731 115.878 92.4302 115.574 93.2046H115.472V92.1064H114.158V99ZM128.656 99.1333C130.675 99.1333 131.913 97.7812 131.913 95.5532C131.913 93.3252 130.668 91.9731 128.656 91.9731C126.638 91.9731 125.394 93.3315 125.394 95.5532C125.394 97.7812 126.631 99.1333 128.656 99.1333ZM128.656 97.9717C127.469 97.9717 126.803 97.0894 126.803 95.5532C126.803 94.0171 127.469 93.1284 128.656 93.1284C129.837 93.1284 130.51 94.0171 130.51 95.5532C130.51 97.083 129.837 97.9717 128.656 97.9717ZM134.039 90.3672V92.1255H132.941V93.2173H134.039V97.1846C134.039 98.5112 134.642 99.0444 136.159 99.0444C136.426 99.0444 136.68 99.0127 136.902 98.9746V97.8892C136.711 97.9082 136.591 97.9209 136.381 97.9209C135.702 97.9209 135.404 97.5972 135.404 96.8545V93.2173H136.902V92.1255H135.404V90.3672H134.039ZM142.964 97.1528C142.71 97.7114 142.145 98.0161 141.32 98.0161C140.228 98.0161 139.523 97.229 139.479 95.9785V95.915H144.36V95.4453C144.36 93.2871 143.199 91.9731 141.275 91.9731C139.327 91.9731 138.089 93.376 138.089 95.5659C138.089 97.7686 139.301 99.1333 141.282 99.1333C142.862 99.1333 143.979 98.3716 144.278 97.1528H142.964ZM141.269 93.084C142.278 93.084 142.938 93.814 142.97 94.9312H139.479C139.555 93.8203 140.26 93.084 141.269 93.084ZM151.133 95.4771H153.139L155.005 99H156.649L154.593 95.2549C155.71 94.8804 156.37 93.8774 156.37 92.6396C156.37 90.9321 155.183 89.8403 153.336 89.8403H149.711V99H151.133V95.4771ZM151.133 91.0337H153.139C154.237 91.0337 154.91 91.6494 154.91 92.6714C154.91 93.7188 154.275 94.3091 153.177 94.3091H151.133V91.0337ZM162.565 97.1528C162.312 97.7114 161.747 98.0161 160.921 98.0161C159.83 98.0161 159.125 97.229 159.081 95.9785V95.915H163.962V95.4453C163.962 93.2871 162.8 91.9731 160.877 91.9731C158.928 91.9731 157.69 93.376 157.69 95.5659C157.69 97.7686 158.903 99.1333 160.883 99.1333C162.464 99.1333 163.581 98.3716 163.879 97.1528H162.565ZM160.871 93.084C161.88 93.084 162.54 93.814 162.572 94.9312H159.081C159.157 93.8203 159.861 93.084 160.871 93.084ZM169.186 91.9858C168.247 91.9858 167.434 92.4619 167.015 93.249H166.914V92.1064H165.6V101.298H166.964V97.959H167.072C167.434 98.689 168.215 99.1143 169.199 99.1143C170.944 99.1143 172.055 97.7305 172.055 95.5532C172.055 93.3633 170.944 91.9858 169.186 91.9858ZM168.799 97.9463C167.656 97.9463 166.939 97.0259 166.939 95.5532C166.939 94.0742 167.656 93.1538 168.805 93.1538C169.96 93.1538 170.652 94.0552 170.652 95.5532C170.652 97.0513 169.96 97.9463 168.799 97.9463ZM176.619 99.1333C178.638 99.1333 179.875 97.7812 179.875 95.5532C179.875 93.3252 178.631 91.9731 176.619 91.9731C174.601 91.9731 173.356 93.3315 173.356 95.5532C173.356 97.7812 174.594 99.1333 176.619 99.1333ZM176.619 97.9717C175.432 97.9717 174.766 97.0894 174.766 95.5532C174.766 94.0171 175.432 93.1284 176.619 93.1284C177.8 93.1284 178.473 94.0171 178.473 95.5532C178.473 97.083 177.8 97.9717 176.619 97.9717ZM181.361 94.0361C181.361 95.0581 181.97 95.6421 183.284 95.9468L184.49 96.2324C185.182 96.3975 185.506 96.6768 185.506 97.1084C185.506 97.6733 184.903 98.0669 184.052 98.0669C183.227 98.0669 182.719 97.7305 182.548 97.1909H181.183C181.304 98.3906 182.376 99.1333 184.021 99.1333C185.671 99.1333 186.883 98.2637 186.883 96.9814C186.883 95.9785 186.268 95.4136 184.954 95.1089L183.805 94.8423C183.056 94.6646 182.707 94.3979 182.707 93.9727C182.707 93.4141 183.284 93.0396 184.046 93.0396C184.82 93.0396 185.315 93.376 185.442 93.8901H186.75C186.617 92.6968 185.601 91.9731 184.046 91.9731C182.484 91.9731 181.361 92.8364 181.361 94.0361ZM189.232 90.875C189.708 90.875 190.095 90.4878 190.095 90.0181C190.095 89.542 189.708 89.1548 189.232 89.1548C188.756 89.1548 188.369 89.542 188.369 90.0181C188.369 90.4878 188.756 90.875 189.232 90.875ZM188.553 99H189.911V92.1064H188.553V99ZM192.399 90.3672V92.1255H191.301V93.2173H192.399V97.1846C192.399 98.5112 193.002 99.0444 194.52 99.0444C194.786 99.0444 195.04 99.0127 195.262 98.9746V97.8892C195.072 97.9082 194.951 97.9209 194.742 97.9209C194.062 97.9209 193.764 97.5972 193.764 96.8545V93.2173H195.262V92.1255H193.764V90.3672H192.399ZM199.712 99.1333C201.73 99.1333 202.968 97.7812 202.968 95.5532C202.968 93.3252 201.724 91.9731 199.712 91.9731C197.693 91.9731 196.449 93.3315 196.449 95.5532C196.449 97.7812 197.687 99.1333 199.712 99.1333ZM199.712 97.9717C198.525 97.9717 197.858 97.0894 197.858 95.5532C197.858 94.0171 198.525 93.1284 199.712 93.1284C200.893 93.1284 201.565 94.0171 201.565 95.5532C201.565 97.083 200.893 97.9717 199.712 97.9717ZM204.612 99H205.977V94.8804C205.977 93.9092 206.707 93.2427 207.742 93.2427C207.983 93.2427 208.389 93.2871 208.503 93.3188V92.0366C208.357 92.0049 208.097 91.9858 207.894 91.9858C206.993 91.9858 206.225 92.4746 206.028 93.1538H205.926V92.1064H204.612V99ZM210.541 101.501C211.95 101.501 212.604 100.974 213.194 99.3174L215.771 92.1064H214.324L212.598 97.6289H212.49L210.757 92.1064H209.271L211.772 99.019L211.671 99.3745C211.436 100.104 211.068 100.377 210.42 100.377C210.293 100.377 210.084 100.371 209.976 100.352V101.469C210.103 101.488 210.427 101.501 210.541 101.501ZM217.301 99.0952C217.841 99.0952 218.234 98.6953 218.234 98.1812C218.234 97.667 217.841 97.2671 217.301 97.2671C216.768 97.2671 216.368 97.667 216.368 98.1812C216.368 98.6953 216.768 99.0952 217.301 99.0952ZM221.402 99.0952C221.941 99.0952 222.335 98.6953 222.335 98.1812C222.335 97.667 221.941 97.2671 221.402 97.2671C220.869 97.2671 220.469 97.667 220.469 98.1812C220.469 98.6953 220.869 99.0952 221.402 99.0952ZM225.502 99.0952C226.042 99.0952 226.436 98.6953 226.436 98.1812C226.436 97.667 226.042 97.2671 225.502 97.2671C224.969 97.2671 224.569 97.667 224.569 98.1812C224.569 98.6953 224.969 99.0952 225.502 99.0952Z" fill="white"/>
        </g>
        <g>
          <g>
            <rect x="60" y="116" width="62.5" height="6" rx="3" fill="var(--vscode-editorHoverWidget-border, #FFFFFF)" />
            <rect x="126.5" y="116" width="29" height="6" rx="3" fill="var(--vscode-textLink-foreground, #3794FF)" />
            <rect x="159.5" y="116" width="62.5" height="6" rx="3" fill="var(--vscode-editorHoverWidget-border, #FFFFFF)" />
          </g>
        </g>
        <g>
          <g>
            <rect x="60" y="138" width="41" height="6" rx="3" fill="var(--vscode-editorHoverWidget-border, #FFFFFF)" />
            <rect x="105" y="138" width="69" height="6" rx="3" fill="var(--vscode-editorHoverWidget-border, #FFFFFF)" />
            <rect x="178" y="138" width="26" height="6" rx="3" fill="var(--vscode-textLink-foreground, #3794FF)" />
          </g>
        </g>
        <g>
          <g>
            <rect x="60" y="160" width="26" height="6" rx="3" fill="var(--vscode-textLink-foreground, #3794FF)" />
            <rect x="90" y="160" width="164" height="6" rx="3" fill="var(--vscode-editorHoverWidget-border, #FFFFFF)" />
          </g>
        </g>
        <g>
          <g>
            <rect x="60" y="182" width="46" height="6" rx="3" fill="var(--vscode-editorHoverWidget-border, #FFFFFF)" />
            <rect x="110" y="182" width="29" height="6" rx="3" fill="var(--vscode-textLink-foreground, #3794FF)" />
            <rect x="143" y="182" width="46" height="6" rx="3" fill="var(--vscode-editorHoverWidget-border, #FFFFFF)" />
          </g>
        </g>
      </g>
    </g>
  </g>
  <defs>
    <filter id="filter0_d_1003_92672" x="32" y="6" width="457" height="214" filterUnits="userSpaceOnUse" color-interpolation-filters="sRGB">
      <feFlood flood-opacity="0" result="BackgroundImageFix" />
      <feColorMatrix in="SourceAlpha" type="matrix" values="0 0 0 0 0 0 0 0 0 0 0 0 0 0 0 0 0 0 127 0" result="hardAlpha" />
      <feOffset dy="2" />
      <feGaussianBlur stdDeviation="8" />
      <feColorMatrix type="matrix" values="0 0 0 0 0 0 0 0 0 0 0 0 0 0 0 0 0 0 0.36 0" />
      <feBlend mode="normal" in2="BackgroundImageFix" result="effect1_dropShadow_1003_92672" />
      <feBlend mode="normal" in="SourceGraphic" in2="effect1_dropShadow_1003_92672" result="shape" />
    </filter>
    <clipPath id="clip0_1003_92672">
      <rect width="520" height="220" fill="#FFFFFF" />
    </clipPath>
    <clipPath id="clip1_1003_92672">
      <rect width="115.654" height="39.2998" fill="#FFFFFF" />
    </clipPath>
  </defs>
</svg>